<svg xmlns="http://www.w3.org/2000/svg" width="360" height="272" viewBox="0 0 360 272"><rect width="360" height="272" fill="#FFFFFF"/><g transform="translate(0,12)"><g transform="translate(12,12)"><g transform="translate(0,0)"><g transform="translate(12,12)"><g transform="translate(0,0)"><text x="4" y="14" font-size="13" fill="#000000">Weekly reminder</text><g transform="translate(12,30)"></g></g><g transform="translate(0,48)"><text x="0" y="12" font-size="11" fill="#888888">Repeat on</text><g transform="translate(0,16)"><g transform="translate(0,0)"><rect width="71.04" height="36" rx="18" fill="#007DFF"/><text x="35.52" y="23" font-size="14" text-anchor="middle" fill="#FFFFFF">Monday</text></g><g transform="translate(79.04,0)"><rect width="78.88" height="36" rx="18" fill="#E0E0E0"/><text x="39.44" y="23" font-size="14" text-anchor="middle" fill="#333333">Tuesday</text></g><g transform="translate(165.92000000000002,0)"><rect width="94.56" height="36" rx="18" fill="#E0E0E0"/><text x="47.28" y="23" font-size="14" text-anchor="middle" fill="#333333">Wednesday</text></g><g transform="translate(0,44)"><rect width="86.72" height="36" rx="18" fill="#E0E0E0"/><text x="43.36" y="23" font-size="14" text-anchor="middle" fill="#333333">Thursday</text></g><g transform="translate(94.72,44)"><rect width="71.04" height="36" rx="18" fill="#E0E0E0"/><text x="35.52" y="23" font-size="14" text-anchor="middle" fill="#333333">Friday</text></g><g transform="translate(173.76,44)"><rect width="86.72" height="36" rx="18" fill="#E0E0E0"/><text x="43.36" y="23" font-size="14" text-anchor="middle" fill="#333333">Saturday</text></g><g transform="translate(0,88)"><rect width="71.04" height="36" rx="18" fill="#E0E0E0"/><text x="35.52" y="23" font-size="14" text-anchor="middle" fill="#333333">Sunday</text></g></g></g></g></g></g></g></svg>
